# xmcd
#
# Track frame offsets:
#	150
#	8542
#	15040
#	26210
#	42430
#	63517
#	66973
#	77499
#	93180
#	104839
#	117118
#	131996
#	144955
#	160974
#	177270
#	186737
#	203859
#	213336
#	225638
#	234030
#	249266
#	266290
#	280259
#	292907
#	302480
#	312490
#
# Disc length: 4325 seconds
#
# Revision: 0
# Processed by: cddbd v1.5.2PL0 Copyright (c) Steve Scherf et al.
# Submitted via: EZCDAudioConverter 1.3.4.1
#
DISCID=6310e31a
DTITLE=Big Star - Keep An Eye On The Sky 3/4
DYEAR=2009
DGENRE=
TTITLE0=Lovely Day [Demo]
TTITLE1=Downs [Demo]
TTITLE2=Jesus Christ [Demo]
TTITLE3=Holocaust [Demo]
TTITLE4=Big Black Car [Alternate Demo]
TTITLE5=Manana
TTITLE6=Jesus Christ
TTITLE7=Femme Fatale
TTITLE8=O, Dana
TTITLE9=Kizza Me
TTITLE10=You Can't Have Me
TTITLE11=Nightime
TTITLE12=Dream Lover
TTITLE13=Big Black Car
TTITLE14=Blue Moon
TTITLE15=Holocaust
TTITLE16=Stroke It Noel
TTITLE17=For You
TTITLE18=Downs
TTITLE19=Whole Lotta Shakin' Goin' On
TTITLE20=Kanga Roo
TTITLE21=Thank You Friends
TTITLE22=Take Care
TTITLE23=Lovely Day
TTITLE24=Till The End Of The Day [Alternate Mix]
TTITLE25=Nature Boy [Alternate Mix]
EXTD=
EXTT0=
EXTT1=
EXTT2=
EXTT3=
EXTT4=
EXTT5=
EXTT6=
EXTT7=
EXTT8=
EXTT9=
EXTT10=
EXTT11=
EXTT12=
EXTT13=
EXTT14=
EXTT15=
EXTT16=
EXTT17=
EXTT18=
EXTT19=
EXTT20=
EXTT21=
EXTT22=
EXTT23=
EXTT24=
EXTT25=
PLAYORDER=
